<mxfile host="app.diagrams.net" modified="2022-03-11T14:53:34.648Z" agent="5.0 (Windows NT 10.0; Win64; x64) AppleWebKit/537.36 (KHTML, like Gecko) Chrome/99.0.4844.51 Safari/537.36" etag="l-ziFgeQum86oXgHBVaQ" version="17.1.2" type="github">
  <diagram id="N7ls4SXz7QX6op4xOjun" name="Page-1">
    <mxGraphModel dx="1422" dy="786" grid="1" gridSize="10" guides="1" tooltips="1" connect="1" arrows="1" fold="1" page="1" pageScale="1" pageWidth="850" pageHeight="1100" math="0" shadow="0">
      <root>
        <mxCell id="0" />
        <mxCell id="1" parent="0" />
        <mxCell id="PhUbcP5dnYv0yMSliKMA-2" value="&lt;font size=&quot;3&quot;&gt;&lt;b&gt;image&lt;/b&gt;&lt;/font&gt;" style="rounded=0;whiteSpace=wrap;html=1;fillColor=#f5f5f5;fontColor=#333333;strokeColor=#666666;" parent="1" vertex="1">
          <mxGeometry x="40" y="270" width="280" height="40" as="geometry" />
        </mxCell>
        <mxCell id="PhUbcP5dnYv0yMSliKMA-3" value="FS snapshot" style="rounded=0;whiteSpace=wrap;html=1;fontSize=18;fillColor=#d5e8d4;strokeColor=#82b366;" parent="1" vertex="1">
          <mxGeometry x="40" y="310" width="130" height="40" as="geometry" />
        </mxCell>
        <mxCell id="PhUbcP5dnYv0yMSliKMA-5" value="start up command" style="rounded=0;whiteSpace=wrap;html=1;fontSize=18;fillColor=#d5e8d4;strokeColor=#82b366;" parent="1" vertex="1">
          <mxGeometry x="170" y="310" width="150" height="40" as="geometry" />
        </mxCell>
        <mxCell id="PhUbcP5dnYv0yMSliKMA-6" value="" style="rounded=0;whiteSpace=wrap;html=1;fontSize=18;fillColor=#dae8fc;strokeColor=#6c8ebf;" parent="1" vertex="1">
          <mxGeometry x="40" y="350" width="130" height="60" as="geometry" />
        </mxCell>
        <mxCell id="PhUbcP5dnYv0yMSliKMA-42" style="edgeStyle=orthogonalEdgeStyle;rounded=1;sketch=0;orthogonalLoop=1;jettySize=auto;html=1;exitX=0.5;exitY=1;exitDx=0;exitDy=0;entryX=0;entryY=0.5;entryDx=0;entryDy=0;shadow=0;fontSize=12;strokeWidth=3;" parent="1" source="PhUbcP5dnYv0yMSliKMA-7" target="PhUbcP5dnYv0yMSliKMA-22" edge="1">
          <mxGeometry relative="1" as="geometry" />
        </mxCell>
        <mxCell id="PhUbcP5dnYv0yMSliKMA-7" value="&lt;font style=&quot;font-size: 11px&quot;&gt;hello-world&lt;/font&gt;" style="rounded=1;whiteSpace=wrap;html=1;fontSize=18;fillColor=#ffe6cc;strokeColor=#d79b00;" parent="1" vertex="1">
          <mxGeometry x="75" y="370" width="60" height="20" as="geometry" />
        </mxCell>
        <mxCell id="PhUbcP5dnYv0yMSliKMA-8" value="" style="rounded=0;whiteSpace=wrap;html=1;fontSize=11;fillColor=#dae8fc;strokeColor=#6c8ebf;" parent="1" vertex="1">
          <mxGeometry x="170" y="350" width="150" height="60" as="geometry" />
        </mxCell>
        <mxCell id="PhUbcP5dnYv0yMSliKMA-41" style="edgeStyle=orthogonalEdgeStyle;rounded=1;sketch=0;orthogonalLoop=1;jettySize=auto;html=1;exitX=1;exitY=0.5;exitDx=0;exitDy=0;entryX=0;entryY=0.5;entryDx=0;entryDy=0;shadow=0;fontSize=12;strokeWidth=3;" parent="1" source="PhUbcP5dnYv0yMSliKMA-9" target="PhUbcP5dnYv0yMSliKMA-11" edge="1">
          <mxGeometry relative="1" as="geometry" />
        </mxCell>
        <mxCell id="PhUbcP5dnYv0yMSliKMA-9" value="&amp;gt; Run&amp;nbsp; hello-world" style="rounded=1;whiteSpace=wrap;html=1;fontSize=11;fillColor=#ffe6cc;strokeColor=#d79b00;" parent="1" vertex="1">
          <mxGeometry x="195" y="370" width="100" height="20" as="geometry" />
        </mxCell>
        <mxCell id="PhUbcP5dnYv0yMSliKMA-10" style="edgeStyle=orthogonalEdgeStyle;rounded=0;orthogonalLoop=1;jettySize=auto;html=1;exitX=0.5;exitY=1;exitDx=0;exitDy=0;fontSize=11;" parent="1" source="PhUbcP5dnYv0yMSliKMA-7" target="PhUbcP5dnYv0yMSliKMA-7" edge="1">
          <mxGeometry relative="1" as="geometry" />
        </mxCell>
        <mxCell id="PhUbcP5dnYv0yMSliKMA-14" value="" style="swimlane;startSize=0;fontSize=11;fillColor=#f5f5f5;fontColor=#333333;strokeColor=#666666;" parent="1" vertex="1">
          <mxGeometry x="400" y="120" width="260" height="480" as="geometry" />
        </mxCell>
        <mxCell id="PhUbcP5dnYv0yMSliKMA-11" value="" style="rounded=0;whiteSpace=wrap;html=1;fontSize=11;fillColor=#dae8fc;strokeColor=#6c8ebf;" parent="PhUbcP5dnYv0yMSliKMA-14" vertex="1">
          <mxGeometry x="10" y="40" width="160" height="40" as="geometry" />
        </mxCell>
        <mxCell id="PhUbcP5dnYv0yMSliKMA-19" value="" style="swimlane;startSize=0;fontSize=18;" parent="PhUbcP5dnYv0yMSliKMA-14" vertex="1">
          <mxGeometry y="240" width="260" height="80" as="geometry" />
        </mxCell>
        <mxCell id="PhUbcP5dnYv0yMSliKMA-16" value="&lt;font style=&quot;font-size: 18px&quot;&gt;RAM&lt;/font&gt;" style="rounded=0;whiteSpace=wrap;html=1;fontSize=24;fillColor=#dae8fc;strokeColor=#6c8ebf;" parent="PhUbcP5dnYv0yMSliKMA-19" vertex="1">
          <mxGeometry x="10" y="20" width="70" height="40" as="geometry" />
        </mxCell>
        <mxCell id="PhUbcP5dnYv0yMSliKMA-17" value="&lt;font style=&quot;font-size: 18px&quot;&gt;Network&lt;/font&gt;" style="rounded=0;whiteSpace=wrap;html=1;fontSize=24;fillColor=#dae8fc;strokeColor=#6c8ebf;" parent="PhUbcP5dnYv0yMSliKMA-19" vertex="1">
          <mxGeometry x="90" y="20" width="70" height="40" as="geometry" />
        </mxCell>
        <mxCell id="PhUbcP5dnYv0yMSliKMA-18" value="&lt;font style=&quot;font-size: 18px&quot;&gt;CPU&lt;/font&gt;" style="rounded=0;whiteSpace=wrap;html=1;fontSize=24;fillColor=#dae8fc;strokeColor=#6c8ebf;" parent="PhUbcP5dnYv0yMSliKMA-19" vertex="1">
          <mxGeometry x="170" y="20" width="70" height="40" as="geometry" />
        </mxCell>
        <mxCell id="PhUbcP5dnYv0yMSliKMA-20" value="" style="strokeWidth=2;html=1;shape=mxgraph.flowchart.annotation_2;align=left;labelPosition=right;pointerEvents=1;fontSize=18;rotation=-180;" parent="PhUbcP5dnYv0yMSliKMA-14" vertex="1">
          <mxGeometry x="140" y="350" width="50" height="100" as="geometry" />
        </mxCell>
        <mxCell id="PhUbcP5dnYv0yMSliKMA-21" value="&lt;font style=&quot;font-size: 12px&quot;&gt;&lt;i&gt;Hard drive segment for this process&lt;/i&gt;&lt;/font&gt;" style="text;html=1;strokeColor=none;fillColor=none;align=center;verticalAlign=middle;whiteSpace=wrap;rounded=0;fontSize=18;" parent="PhUbcP5dnYv0yMSliKMA-14" vertex="1">
          <mxGeometry x="190" y="380" width="60" height="30" as="geometry" />
        </mxCell>
        <mxCell id="PhUbcP5dnYv0yMSliKMA-22" value="" style="rounded=0;whiteSpace=wrap;html=1;fontSize=18;fillColor=#dae8fc;strokeColor=#6c8ebf;" parent="PhUbcP5dnYv0yMSliKMA-14" vertex="1">
          <mxGeometry x="20" y="370" width="130" height="60" as="geometry" />
        </mxCell>
        <mxCell id="PhUbcP5dnYv0yMSliKMA-23" value="&lt;font style=&quot;font-size: 11px&quot;&gt;hello-world&lt;/font&gt;" style="rounded=1;whiteSpace=wrap;html=1;fontSize=18;fillColor=#ffe6cc;strokeColor=#d79b00;" parent="PhUbcP5dnYv0yMSliKMA-14" vertex="1">
          <mxGeometry x="55" y="390" width="60" height="20" as="geometry" />
        </mxCell>
        <mxCell id="PhUbcP5dnYv0yMSliKMA-24" style="edgeStyle=orthogonalEdgeStyle;rounded=0;orthogonalLoop=1;jettySize=auto;html=1;exitX=0.5;exitY=1;exitDx=0;exitDy=0;fontSize=11;" parent="PhUbcP5dnYv0yMSliKMA-14" source="PhUbcP5dnYv0yMSliKMA-23" target="PhUbcP5dnYv0yMSliKMA-23" edge="1">
          <mxGeometry relative="1" as="geometry" />
        </mxCell>
        <mxCell id="PhUbcP5dnYv0yMSliKMA-27" value="&amp;gt; Run&amp;nbsp; hello-world" style="rounded=1;whiteSpace=wrap;html=1;fontSize=11;fillColor=#ffe6cc;strokeColor=#d79b00;" parent="PhUbcP5dnYv0yMSliKMA-14" vertex="1">
          <mxGeometry x="40" y="50" width="100" height="20" as="geometry" />
        </mxCell>
        <mxCell id="PhUbcP5dnYv0yMSliKMA-28" value="&lt;i&gt;&lt;b&gt;Running process&lt;/b&gt;&lt;/i&gt;" style="text;html=1;strokeColor=none;fillColor=none;align=center;verticalAlign=middle;whiteSpace=wrap;rounded=0;fontSize=12;" parent="PhUbcP5dnYv0yMSliKMA-14" vertex="1">
          <mxGeometry x="180" y="45" width="60" height="30" as="geometry" />
        </mxCell>
        <mxCell id="PhUbcP5dnYv0yMSliKMA-32" value="" style="shape=singleArrow;direction=south;whiteSpace=wrap;html=1;fontSize=12;fillColor=#000000;" parent="PhUbcP5dnYv0yMSliKMA-14" vertex="1">
          <mxGeometry x="115" y="80" width="15" height="50" as="geometry" />
        </mxCell>
        <mxCell id="PhUbcP5dnYv0yMSliKMA-34" value="" style="shape=singleArrow;direction=south;whiteSpace=wrap;html=1;fontSize=12;fillColor=#000000;" parent="PhUbcP5dnYv0yMSliKMA-14" vertex="1">
          <mxGeometry x="115" y="200" width="15" height="50" as="geometry" />
        </mxCell>
        <mxCell id="PhUbcP5dnYv0yMSliKMA-15" value="&lt;font style=&quot;font-size: 24px&quot;&gt;Kernel&lt;/font&gt;" style="rounded=0;whiteSpace=wrap;html=1;fontSize=11;fillColor=#e1d5e7;strokeColor=#9673a6;" parent="1" vertex="1">
          <mxGeometry x="480" y="260" width="300" height="60" as="geometry" />
        </mxCell>
      </root>
    </mxGraphModel>
  </diagram>
</mxfile>
